<svg width="59" height="90" viewBox="0 0 59 90" fill="none" xmlns="http://www.w3.org/2000/svg">
<g filter="url(#filter0_d_2_92)">
<path d="M15.0513 89.6606C23.0898 89.6606 29.6099 83.0208 29.6099 74.8349V60.0092H15.0513C7.01274 60.0092 0.492615 66.6489 0.492615 74.8349C0.492615 83.0208 7.01274 89.6606 15.0513 89.6606Z" fill="#0ACF83"/>
</g>
<g filter="url(#filter1_d_2_92)">
<path d="M0.492615 45.1652C0.492615 36.9792 7.01274 30.3395 15.0513 30.3395H29.6099V60.0091H15.0513C7.01274 59.9909 0.492615 53.3512 0.492615 45.1652Z" fill="#A259FF"/>
</g>
<g filter="url(#filter2_d_2_92)">
<path d="M0.492615 15.4956C0.492615 7.30965 7.01274 0.669922 15.0513 0.669922H29.6099V30.3395H15.0513C7.01274 30.3395 0.492615 23.6816 0.492615 15.4956Z" fill="#F24E1E"/>
</g>
<g filter="url(#filter3_d_2_92)">
<path d="M29.6277 0.669922H44.1864C52.2249 0.669922 58.745 7.30965 58.745 15.4956C58.745 23.6816 52.2249 30.3213 44.1864 30.3213H29.6277V0.669922V0.669922Z" fill="#FF7262"/>
</g>
<g filter="url(#filter4_d_2_92)">
<path d="M58.7451 45.1652C58.7451 53.3512 52.2249 59.9909 44.1864 59.9909C36.1479 59.9909 29.6278 53.3512 29.6278 45.1652C29.6278 36.9792 36.1479 30.3395 44.1864 30.3395C52.2249 30.3395 58.7451 36.9792 58.7451 45.1652Z" fill="#1ABCFE"/>
</g>
<defs>
<filter id="filter0_d_2_92" x="-3.50739" y="60.0092" width="37.1173" height="37.6514" filterUnits="userSpaceOnUse" color-interpolation-filters="sRGB">
<feFlood flood-opacity="0" result="BackgroundImageFix"/>
<feColorMatrix in="SourceAlpha" type="matrix" values="0 0 0 0 0 0 0 0 0 0 0 0 0 0 0 0 0 0 127 0" result="hardAlpha"/>
<feOffset dy="4"/>
<feGaussianBlur stdDeviation="2"/>
<feComposite in2="hardAlpha" operator="out"/>
<feColorMatrix type="matrix" values="0 0 0 0 0 0 0 0 0 0 0 0 0 0 0 0 0 0 0.25 0"/>
<feBlend mode="normal" in2="BackgroundImageFix" result="effect1_dropShadow_2_92"/>
<feBlend mode="normal" in="SourceGraphic" in2="effect1_dropShadow_2_92" result="shape"/>
</filter>
<filter id="filter1_d_2_92" x="-3.50739" y="30.3395" width="37.1173" height="37.6696" filterUnits="userSpaceOnUse" color-interpolation-filters="sRGB">
<feFlood flood-opacity="0" result="BackgroundImageFix"/>
<feColorMatrix in="SourceAlpha" type="matrix" values="0 0 0 0 0 0 0 0 0 0 0 0 0 0 0 0 0 0 127 0" result="hardAlpha"/>
<feOffset dy="4"/>
<feGaussianBlur stdDeviation="2"/>
<feComposite in2="hardAlpha" operator="out"/>
<feColorMatrix type="matrix" values="0 0 0 0 0 0 0 0 0 0 0 0 0 0 0 0 0 0 0.25 0"/>
<feBlend mode="normal" in2="BackgroundImageFix" result="effect1_dropShadow_2_92"/>
<feBlend mode="normal" in="SourceGraphic" in2="effect1_dropShadow_2_92" result="shape"/>
</filter>
<filter id="filter2_d_2_92" x="-3.50739" y="0.669922" width="37.1173" height="37.6696" filterUnits="userSpaceOnUse" color-interpolation-filters="sRGB">
<feFlood flood-opacity="0" result="BackgroundImageFix"/>
<feColorMatrix in="SourceAlpha" type="matrix" values="0 0 0 0 0 0 0 0 0 0 0 0 0 0 0 0 0 0 127 0" result="hardAlpha"/>
<feOffset dy="4"/>
<feGaussianBlur stdDeviation="2"/>
<feComposite in2="hardAlpha" operator="out"/>
<feColorMatrix type="matrix" values="0 0 0 0 0 0 0 0 0 0 0 0 0 0 0 0 0 0 0.25 0"/>
<feBlend mode="normal" in2="BackgroundImageFix" result="effect1_dropShadow_2_92"/>
<feBlend mode="normal" in="SourceGraphic" in2="effect1_dropShadow_2_92" result="shape"/>
</filter>
<filter id="filter3_d_2_92" x="25.6277" y="0.669922" width="37.1173" height="37.6514" filterUnits="userSpaceOnUse" color-interpolation-filters="sRGB">
<feFlood flood-opacity="0" result="BackgroundImageFix"/>
<feColorMatrix in="SourceAlpha" type="matrix" values="0 0 0 0 0 0 0 0 0 0 0 0 0 0 0 0 0 0 127 0" result="hardAlpha"/>
<feOffset dy="4"/>
<feGaussianBlur stdDeviation="2"/>
<feComposite in2="hardAlpha" operator="out"/>
<feColorMatrix type="matrix" values="0 0 0 0 0 0 0 0 0 0 0 0 0 0 0 0 0 0 0.25 0"/>
<feBlend mode="normal" in2="BackgroundImageFix" result="effect1_dropShadow_2_92"/>
<feBlend mode="normal" in="SourceGraphic" in2="effect1_dropShadow_2_92" result="shape"/>
</filter>
<filter id="filter4_d_2_92" x="25.6278" y="30.3395" width="37.1173" height="37.6514" filterUnits="userSpaceOnUse" color-interpolation-filters="sRGB">
<feFlood flood-opacity="0" result="BackgroundImageFix"/>
<feColorMatrix in="SourceAlpha" type="matrix" values="0 0 0 0 0 0 0 0 0 0 0 0 0 0 0 0 0 0 127 0" result="hardAlpha"/>
<feOffset dy="4"/>
<feGaussianBlur stdDeviation="2"/>
<feComposite in2="hardAlpha" operator="out"/>
<feColorMatrix type="matrix" values="0 0 0 0 0 0 0 0 0 0 0 0 0 0 0 0 0 0 0.25 0"/>
<feBlend mode="normal" in2="BackgroundImageFix" result="effect1_dropShadow_2_92"/>
<feBlend mode="normal" in="SourceGraphic" in2="effect1_dropShadow_2_92" result="shape"/>
</filter>
</defs>
</svg>
